# xmcd
# 
# Track frame offsets:
#     150
#     44291
#     66227
#     102997
#     131285
#     156009
#     201583
#     246718
# 
# Disc length: 3730
# 
# Revision: 1
# Processed by: cddbd v1.5.2PL0 Copyright (c) Steve Scherf et al.
# Submitted via: BonkEnc v1.0.0
# 
DISCID=750e9008
DTITLE=Fritjof Capra - The Tao of Physics-Disc 3
DYEAR=1990
DGENRE=New Age
TTITLE0=01
TTITLE1=02
TTITLE2=03
TTITLE3=04
TTITLE4=05
TTITLE5=06
TTITLE6=07
TTITLE7=08
EXTD=YEAR: 1990
EXTT0=
EXTT1=
EXTT2=
EXTT3=
EXTT4=
EXTT5=
EXTT6=
EXTT7=
PLAYORDER=
